<svg xmlns="http://www.w3.org/2000/svg" x="0px" y="0px"
width="100" height="100"
viewBox="0 0 100 100">
<path d="M 51 12.589844 C 50.011518 12.589844 49.023702 12.800059 48.103516 13.21875 L 19.931641 26.025391 C 18.149185 26.835484 17 28.617539 17 30.576172 L 17 70.423828 C 17 72.382461 18.148832 74.166309 19.931641 74.976562 L 48.103516 87.78125 C 49.943712 88.617385 52.056288 88.617385 53.896484 87.78125 L 82.068359 74.976562 C 83.850815 74.16647 85 72.384414 85 70.425781 L 85 30.576172 C 85 28.617539 83.851675 26.832673 82.068359 26.023438 L 82.068359 26.025391 L 53.896484 13.21875 C 52.976298 12.800059 51.988482 12.589844 51 12.589844 z M 51 14.589844 C 51.705518 14.589844 52.410546 14.739754 53.068359 15.039062 L 81.240234 27.845703 A 1.0001 1.0001 0 0 0 81.242188 27.845703 C 81.688666 28.048316 82.06278 28.355216 82.353516 28.724609 L 51 41.460938 L 19.646484 28.724609 C 19.937175 28.355285 20.310957 28.048791 20.757812 27.845703 A 1.0001 1.0001 0 0 0 20.759766 27.845703 L 48.931641 15.039062 C 49.589454 14.739754 50.294482 14.589844 51 14.589844 z M 50.996094 16.308594 A 0.50005 0.50005 0 0 0 50.830078 16.341797 L 48.304688 17.320312 A 0.50053863 0.50053863 0 1 0 48.666016 18.253906 L 51.011719 17.345703 L 53.357422 18.253906 A 0.50053863 0.50053863 0 1 0 53.71875 17.320312 L 51.191406 16.341797 A 0.50005 0.50005 0 0 0 50.996094 16.308594 z M 56.773438 18.884766 A 0.50005 0.50005 0 0 0 56.59375 18.921875 L 51.607422 20.859375 A 0.50005 0.50005 0 0 0 51.609375 21.792969 L 56.664062 23.730469 A 0.50005 0.50005 0 1 0 57.021484 22.796875 L 53.177734 21.322266 L 56.957031 19.853516 A 0.50005 0.50005 0 0 0 56.773438 18.884766 z M 40.195312 21.28125 A 0.50005 0.50005 0 0 0 40.027344 21.314453 L 37.5 22.291016 A 0.50053816 0.50053816 0 1 0 37.861328 23.224609 L 40.207031 22.318359 L 42.552734 23.240234 A 0.50005 0.50005 0 0 0 42.917969 23.240234 L 45.197266 22.351562 L 47.542969 23.257812 A 0.50005 0.50005 0 1 0 47.904297 22.326172 L 45.376953 21.349609 A 0.50005 0.50005 0 0 0 45.015625 21.349609 L 42.736328 22.238281 L 40.390625 21.316406 A 0.50005 0.50005 0 0 0 40.195312 21.28125 z M 48.738281 24.955078 A 0.50005 0.50005 0 0 0 48.568359 24.990234 L 43.996094 26.806641 L 41.652344 25.898438 A 0.50053816 0.50053816 0 1 0 41.291016 26.832031 L 43.818359 27.808594 A 0.50005 0.50005 0 0 0 44.181641 27.808594 L 48.755859 25.992188 L 51.097656 26.898438 A 0.50005 0.50005 0 1 0 51.458984 25.966797 L 48.933594 24.988281 A 0.50005 0.50005 0 0 0 48.738281 24.955078 z M 72.603516 26.587891 A 0.50005 0.50005 0 0 0 72.4375 27.556641 L 73.757812 28.066406 L 72.4375 28.578125 A 0.50053863 0.50053863 0 1 0 72.798828 29.511719 L 75.324219 28.533203 A 0.50005 0.50005 0 0 0 75.324219 27.601562 L 72.798828 26.623047 A 0.50005 0.50005 0 0 0 72.603516 26.587891 z M 66.423828 27.291016 A 0.50005 0.50005 0 0 0 66.216797 27.332031 L 63.871094 28.238281 L 61.523438 27.332031 A 0.50005 0.50005 0 0 0 61.328125 27.294922 A 0.50005 0.50005 0 0 0 61.164062 28.263672 L 63.691406 29.242188 A 0.50005 0.50005 0 0 0 64.050781 29.242188 L 66.578125 28.263672 A 0.50005 0.50005 0 0 0 66.423828 27.291016 z M 26.138672 27.851562 A 0.50005 0.50005 0 0 0 25.972656 28.820312 L 28.5 29.796875 A 0.50005 0.50005 0 0 0 28.859375 29.798828 L 31.140625 28.923828 L 33.488281 29.832031 A 0.50053816 0.50053816 0 0 0 33.849609 28.898438 L 31.322266 27.921875 A 0.50005 0.50005 0 0 0 30.962891 27.921875 L 28.681641 28.794922 L 26.333984 27.886719 A 0.50005 0.50005 0 0 0 26.138672 27.851562 z M 19.166016 29.607422 L 50.5 42.335938 L 50.5 51.291016 L 49.005859 50.814453 A 0.50005 0.50005 0 0 0 48.353516 51.283203 L 48.300781 54.220703 L 46.464844 53.457031 L 46.556641 50.193359 A 0.50005 0.50005 0 0 0 46.263672 49.724609 L 43.898438 48.646484 L 43.947266 46.121094 L 48.369141 47.847656 A 0.50005 0.50005 0 1 0 48.732422 46.916016 L 43.970703 45.054688 L 44.0625 41.767578 A 0.50005 0.50005 0 0 0 43.738281 41.285156 L 41.142578 40.306641 A 0.50005 0.50005 0 0 0 40.466797 40.759766 L 40.386719 43.470703 L 38.847656 42.902344 A 0.50005 0.50005 0 0 0 38.173828 43.357422 L 38.091797 46.365234 L 36.287109 45.691406 L 36.410156 42.275391 A 0.50005 0.50005 0 0 0 36.078125 41.787109 L 33.785156 40.964844 L 33.814453 37.611328 A 0.50005 0.50005 0 0 0 33.488281 37.138672 L 31.027344 36.228516 A 0.50005 0.50005 0 0 0 30.832031 36.197266 A 0.50005 0.50005 0 0 0 30.353516 36.683594 L 30.253906 40.492188 A 0.50005 0.50005 0 1 0 31.251953 40.519531 L 31.333984 37.408203 L 32.8125 37.953125 L 32.78125 41.310547 A 0.50005 0.50005 0 0 0 33.111328 41.785156 L 35.396484 42.605469 L 35.275391 46.015625 A 0.50005 0.50005 0 0 0 35.599609 46.501953 L 38.068359 47.423828 L 38.035156 49.953125 L 35.972656 49.236328 A 0.50005 0.50005 0 1 0 35.644531 50.179688 L 38.363281 51.125 A 0.50005 0.50005 0 0 0 39.027344 50.658203 L 39.072266 47.091797 L 39.154297 44.082031 L 40.691406 44.648438 A 0.50005 0.50005 0 0 0 41.365234 44.195312 L 41.445312 41.490234 L 43.052734 42.095703 L 42.960938 45.355469 A 0.50009537 0.50009537 0 0 0 42.960938 45.361328 L 42.960938 45.378906 A 0.50009537 0.50009537 0 0 0 42.960938 45.382812 L 42.892578 48.957031 A 0.50005 0.50005 0 0 0 43.185547 49.421875 L 45.546875 50.498047 L 45.455078 53.773438 A 0.50005 0.50005 0 0 0 45.763672 54.248047 L 48.595703 55.427734 A 0.50005 0.50005 0 0 0 49.287109 54.974609 L 49.341797 51.972656 L 50.5 52.339844 L 50.5 86.382812 C 49.963957 86.328752 49.433603 86.189015 48.931641 85.960938 L 23.183594 74.257812 A 0.50009537 0.50009537 0 0 0 23.1875 74.197266 L 23.248047 71.076172 L 25.167969 71.916016 A 0.50005 0.50005 0 1 0 25.568359 71 L 22.964844 69.861328 A 0.50005 0.50005 0 0 0 22.769531 69.820312 A 0.50005 0.50005 0 0 0 22.263672 70.310547 L 22.195312 73.808594 L 20.759766 73.15625 A 1.0001 1.0001 0 0 0 20.757812 73.15625 C 19.684667 72.668504 19 71.603196 19 70.423828 L 19 54.095703 L 20.935547 54.828125 A 0.50005 0.50005 0 0 0 21.611328 54.378906 L 21.71875 51.6875 L 22.878906 52.160156 A 0.50005 0.50005 0 1 0 23.255859 51.234375 L 21.435547 50.492188 A 0.50005 0.50005 0 0 0 21.240234 50.455078 A 0.50005 0.50005 0 0 0 20.748047 50.935547 L 20.640625 53.648438 L 19 53.027344 L 19 46.75 L 20.746094 47.414062 A 0.50062513 0.50062513 0 0 0 20.84375 47.464844 L 23.126953 48.322266 A 0.50005 0.50005 0 0 0 23.802734 47.865234 L 23.855469 45.337891 L 25.257812 45.871094 L 25.197266 48.923828 A 0.50005 0.50005 0 0 0 25.515625 49.398438 L 28.111328 50.410156 A 0.50005 0.50005 0 0 0 28.791016 49.96875 L 28.925781 47.240234 L 30.392578 47.84375 A 0.50005 0.50005 0 1 0 30.775391 46.919922 L 28.652344 46.042969 A 0.50005 0.50005 0 0 0 27.960938 46.482422 L 27.826172 49.226562 L 26.203125 48.59375 L 26.263672 45.537109 A 0.50005 0.50005 0 0 0 25.941406 45.060547 L 23.548828 44.150391 A 0.50005 0.50005 0 0 0 23.353516 44.119141 A 0.50005 0.50005 0 0 0 22.871094 44.607422 L 22.818359 47.138672 L 21.679688 46.708984 L 21.679688 40.921875 L 28.353516 43.410156 A 0.5002831 0.5002831 0 1 0 28.703125 42.472656 L 23.810547 40.648438 L 23.882812 38.185547 L 25.669922 38.943359 A 0.50005 0.50005 0 0 0 26.365234 38.492188 L 26.433594 34.818359 A 0.50005 0.50005 0 0 0 25.935547 34.302734 A 0.50005 0.50005 0 0 0 25.433594 34.798828 L 25.378906 37.734375 L 23.599609 36.978516 A 0.50005 0.50005 0 0 0 22.904297 37.423828 L 22.820312 40.28125 L 21.355469 39.734375 A 0.50005 0.50005 0 0 0 20.679688 40.201172 L 20.679688 46.320312 L 19 45.679688 L 19 30.576172 C 19 30.23939 19.061287 29.914566 19.166016 29.607422 z M 82.833984 29.607422 C 82.938792 29.914672 83 30.23939 83 30.576172 L 83 38.734375 A 0.50005 0.50005 0 0 0 82.914062 38.761719 L 76.623047 41.283203 L 76.623047 38.583984 A 0.50005 0.50005 0 0 0 75.966797 38.109375 L 74.132812 38.720703 L 74.080078 35.898438 A 0.50005 0.50005 0 0 0 73.556641 35.408203 A 0.50005 0.50005 0 0 0 73.396484 35.443359 L 70.943359 36.416016 L 70.925781 36.421875 A 0.50005 0.50005 0 0 0 70.880859 36.441406 L 68.421875 37.404297 A 0.50005 0.50005 0 0 0 68.103516 37.873047 L 68.130859 41.091797 L 66.634766 41.703125 L 66.617188 38.822266 A 0.50005 0.50005 0 0 0 65.929688 38.361328 L 63.373047 39.396484 A 0.50005 0.50005 0 0 0 63.060547 39.861328 L 63.070312 43.15625 L 61.673828 43.703125 A 0.50005 0.50005 0 0 0 61.355469 44.166016 L 61.34375 47.353516 L 59.519531 48.128906 L 59.525391 45.310547 A 0.50005 0.50005 0 0 0 59.525391 45.277344 L 59.525391 45.275391 L 59.550781 41.65625 A 0.50005 0.50005 0 0 0 59.039062 41.152344 A 0.50005 0.50005 0 0 0 58.865234 41.1875 L 53.320312 43.412109 A 0.50005 0.50005 0 1 0 53.691406 44.339844 L 58.544922 42.392578 L 58.527344 44.933594 L 53.824219 46.792969 A 0.50005 0.50005 0 0 0 53.507812 47.259766 L 53.525391 50.527344 L 51.5 51.25 L 51.5 42.335938 L 82.833984 29.607422 z M 53.996094 29.927734 A 0.50005 0.50005 0 0 0 53.826172 29.962891 L 51.546875 30.882812 L 49.205078 29.978516 A 0.50005 0.50005 0 1 0 48.84375 30.910156 L 51.371094 31.886719 A 0.50005 0.50005 0 0 0 51.738281 31.884766 L 54.017578 30.964844 L 55.802734 31.652344 A 0.500187 0.500187 0 1 0 56.162109 30.71875 L 54.193359 29.960938 A 0.50005 0.50005 0 0 0 53.996094 29.927734 z M 61.59375 30.884766 A 0.50005 0.50005 0 0 0 61.414062 30.921875 L 59.066406 31.830078 L 58.208984 31.501953 A 0.50005 0.50005 0 1 0 57.851562 32.435547 L 58.888672 32.832031 A 0.50005 0.50005 0 0 0 59.248047 32.832031 L 61.773438 31.853516 A 0.50005 0.50005 0 0 0 61.59375 30.884766 z M 80.517578 32.337891 A 0.50005 0.50005 0 0 0 80.035156 32.855469 L 80.101562 36.025391 L 77.949219 36.896484 A 0.5003292 0.5003292 0 1 0 78.324219 37.824219 L 80.796875 36.822266 A 0.50005 0.50005 0 0 0 81.109375 36.347656 L 81.035156 32.833984 A 0.50005 0.50005 0 0 0 80.517578 32.337891 z M 48.8125 32.34375 A 0.50005 0.50005 0 0 0 48.630859 32.378906 L 46.105469 33.357422 A 0.50005 0.50005 0 0 0 46.105469 34.289062 L 48.630859 35.267578 A 0.50053881 0.50053881 0 0 0 48.992188 34.333984 L 47.669922 33.824219 L 48.992188 33.3125 A 0.50005 0.50005 0 0 0 48.8125 32.34375 z M 56.285156 35.300781 A 0.50005 0.50005 0 0 0 56.105469 35.335938 L 53.757812 36.244141 L 51.412109 35.335938 A 0.50005 0.50005 0 0 0 51.064453 35.332031 L 50.330078 35.59375 A 0.50005 0.50005 0 1 0 50.664062 36.535156 L 51.224609 36.335938 L 53.578125 37.248047 A 0.50005 0.50005 0 0 0 53.9375 37.248047 L 56.464844 36.269531 A 0.50005 0.50005 0 0 0 56.285156 35.300781 z M 73.09375 36.638672 L 73.144531 39.419922 A 0.50005 0.50005 0 0 0 73.802734 39.884766 L 75.623047 39.277344 L 75.623047 42.021484 A 0.50005 0.50005 0 0 0 76.310547 42.486328 L 83 39.804688 L 83 42.306641 L 80.582031 43.314453 A 0.50005 0.50005 0 1 0 80.966797 44.236328 L 83 43.388672 L 83 70.425781 C 83 71.605149 82.315731 72.668344 81.242188 73.15625 A 1.0001 1.0001 0 0 0 81.240234 73.15625 L 64.222656 80.890625 L 64.181641 77.791016 L 65.300781 77.300781 A 0.50005 0.50005 0 0 0 65.128906 76.339844 A 0.50005 0.50005 0 0 0 64.900391 76.384766 L 63.476562 77.009766 A 0.50005 0.50005 0 0 0 63.177734 77.472656 L 63.226562 81.271484 A 0.50005 0.50005 0 0 0 63.234375 81.339844 L 53.068359 85.960938 C 52.566397 86.189015 52.036043 86.328752 51.5 86.382812 L 51.5 75.5625 A 0.5003544 0.5003544 0 0 0 51.6875 75.521484 L 54.328125 74.375 A 0.50005 0.50005 0 0 0 54.630859 73.914062 L 54.619141 70.443359 L 56.931641 69.449219 A 0.50005 0.50005 0 0 0 57.234375 68.986328 L 57.212891 65.228516 A 0.50005 0.50005 0 0 0 56.703125 64.724609 A 0.50005 0.50005 0 0 0 56.212891 65.234375 L 56.232422 68.662109 L 53.921875 69.654297 A 0.50005 0.50005 0 0 0 53.619141 70.115234 L 53.628906 73.587891 L 51.5 74.511719 L 51.5 52.3125 L 54.195312 51.351562 A 0.50005 0.50005 0 0 0 54.527344 50.876953 L 54.509766 47.595703 L 58.523438 46.009766 L 58.517578 48.884766 A 0.50005 0.50005 0 0 0 59.212891 49.345703 L 62.039062 48.144531 A 0.50005 0.50005 0 0 0 62.34375 47.6875 L 62.353516 44.509766 L 63.751953 43.962891 A 0.50005 0.50005 0 0 0 64.070312 43.496094 L 64.060547 40.197266 L 65.621094 39.566406 L 65.638672 42.451172 A 0.50005 0.50005 0 0 0 66.328125 42.910156 L 68.822266 41.888672 A 0.50005 0.50005 0 0 0 69.132812 41.421875 L 69.107422 38.208984 L 70.619141 37.617188 L 70.6875 43.646484 L 66.085938 45.472656 A 0.50005 0.50005 0 0 0 65.769531 45.939453 L 65.789062 49.224609 L 63.533203 50.146484 A 0.50016049 0.50016049 0 0 0 63.912109 51.072266 L 66.478516 50.023438 A 0.50005 0.50005 0 0 0 66.789062 49.556641 L 66.771484 46.275391 L 71.375 44.449219 A 0.50005 0.50005 0 0 0 71.691406 43.978516 L 71.615234 37.224609 L 73.09375 36.638672 z M 30.753906 41.777344 A 0.50005 0.50005 0 0 0 30.253906 42.275391 L 30.228516 43.792969 A 0.50006107 0.50006107 0 1 0 31.228516 43.808594 L 31.253906 42.292969 A 0.50005 0.50005 0 0 0 30.753906 41.777344 z M 73.707031 42.517578 A 0.50005 0.50005 0 0 0 73.21875 43.03125 L 73.257812 46.625 A 0.50005 0.50005 0 0 0 73.945312 47.082031 L 75.65625 46.384766 L 75.693359 48.654297 L 73.449219 49.554688 A 0.50005 0.50005 0 0 0 73.134766 50.017578 L 73.136719 53.642578 A 0.50005 0.50005 0 1 0 74.136719 53.642578 L 74.134766 50.355469 L 76.384766 49.455078 A 0.50005 0.50005 0 0 0 76.697266 48.982422 L 76.644531 45.636719 A 0.50005 0.50005 0 0 0 75.955078 45.181641 L 74.25 45.878906 L 74.21875 43.019531 A 0.50005 0.50005 0 0 0 73.707031 42.517578 z M 78.667969 44.099609 A 0.50005 0.50005 0 0 0 78.183594 44.613281 L 78.236328 47.978516 A 0.50006107 0.50006107 0 0 0 79.236328 47.962891 L 79.183594 44.597656 A 0.50005 0.50005 0 0 0 78.667969 44.099609 z M 69.021484 47.908203 A 0.50005 0.50005 0 0 0 68.529297 48.416016 L 68.53125 51.816406 L 66.210938 52.794922 A 0.50005 0.50005 0 1 0 66.597656 53.716797 L 69.224609 52.609375 A 0.50005 0.50005 0 0 0 69.53125 52.148438 L 69.529297 48.414062 A 0.50005 0.50005 0 0 0 69.021484 47.908203 z M 41.009766 51.28125 A 0.50005 0.50005 0 0 0 40.517578 51.789062 L 40.517578 55.429688 A 0.50005 0.50005 0 0 0 40.818359 55.888672 L 43.398438 57.001953 A 0.50005 0.50005 0 0 0 44.095703 56.539062 L 44.070312 52.771484 A 0.50005 0.50005 0 1 0 43.070312 52.779297 L 43.089844 55.779297 L 41.517578 55.101562 L 41.517578 51.789062 A 0.50005 0.50005 0 0 0 41.009766 51.28125 z M 77.927734 51.955078 A 0.50005 0.50005 0 0 0 77.445312 52.470703 L 77.511719 56.101562 A 0.50005 0.50005 0 0 0 78.205078 56.554688 L 80.033203 55.785156 L 80.09375 58.691406 A 0.50011538 0.50011538 0 1 0 81.09375 58.669922 L 81.017578 55.027344 A 0.50005 0.50005 0 0 0 80.324219 54.576172 L 78.498047 55.345703 L 78.445312 52.453125 A 0.50005 0.50005 0 0 0 77.927734 51.955078 z M 54.642578 54.951172 A 0.50005 0.50005 0 0 0 54.148438 55.457031 L 54.140625 59.150391 A 0.50005 0.50005 0 0 0 54.828125 59.615234 L 56.761719 58.832031 L 56.740234 61.833984 A 0.50005 0.50005 0 0 0 57.445312 62.294922 L 59.726562 61.271484 A 0.50005 0.50005 0 1 0 59.318359 60.359375 L 57.746094 61.0625 L 57.767578 58.089844 A 0.50005 0.50005 0 0 0 57.080078 57.623047 L 55.142578 58.408203 L 55.148438 55.458984 A 0.50005 0.50005 0 0 0 54.642578 54.951172 z M 62.515625 55.416016 A 0.50005 0.50005 0 0 0 62.347656 55.449219 L 59.646484 56.492188 A 0.50018654 0.50018654 0 1 0 60.005859 57.425781 L 62.023438 56.646484 L 62.007812 59.552734 A 0.50005 0.50005 0 0 0 62.699219 60.017578 L 64.611328 59.21875 L 64.619141 61.857422 L 62.314453 62.828125 A 0.50005 0.50005 0 1 0 62.701172 63.75 L 65.314453 62.650391 A 0.50005 0.50005 0 0 0 65.619141 62.1875 L 65.609375 58.46875 A 0.50005 0.50005 0 0 0 64.916016 58.009766 L 63.011719 58.802734 L 63.027344 55.917969 A 0.50005 0.50005 0 0 0 62.515625 55.416016 z M 35.8125 56.464844 A 0.50005 0.50005 0 0 0 35.308594 56.960938 L 35.248047 59.888672 L 33.375 59.091797 A 0.50005 0.50005 0 1 0 32.984375 60.011719 L 35.537109 61.097656 A 0.50005 0.50005 0 0 0 36.232422 60.648438 L 36.308594 56.982422 A 0.50005 0.50005 0 0 0 35.8125 56.464844 z M 48.863281 58.21875 A 0.50005 0.50005 0 0 0 48.371094 58.724609 L 48.371094 61.662109 L 47.824219 61.445312 A 0.50014619 0.50014619 0 0 0 47.455078 62.375 L 48.685547 62.863281 A 0.50005 0.50005 0 0 0 49.371094 62.398438 L 49.371094 58.724609 A 0.50005 0.50005 0 0 0 48.863281 58.21875 z M 40.998047 58.679688 A 0.50005 0.50005 0 0 0 40.5 59.179688 L 40.5 62.837891 A 0.50005 0.50005 0 1 0 41.5 62.837891 L 41.5 59.929688 L 43.125 60.607422 A 0.50037562 0.50037562 0 0 0 43.509766 59.683594 L 41.191406 58.71875 A 0.50005 0.50005 0 0 0 40.998047 58.679688 z M 25.513672 59.587891 A 0.50005 0.50005 0 0 0 25.314453 60.550781 L 27.535156 61.498047 L 27.511719 64.09375 L 25.638672 63.302734 A 0.50005 0.50005 0 0 0 24.943359 63.753906 L 24.890625 66.705078 L 23.011719 65.900391 A 0.50009302 0.50009302 0 1 0 22.619141 66.820312 L 25.179688 67.914062 A 0.50005 0.50005 0 0 0 25.875 67.464844 L 25.929688 64.511719 L 27.8125 65.304688 A 0.50005 0.50005 0 0 0 28.505859 64.847656 L 28.539062 61.173828 A 0.50005 0.50005 0 0 0 28.234375 60.708984 L 25.707031 59.630859 A 0.50005 0.50005 0 0 0 25.513672 59.587891 z M 76.619141 60.210938 A 0.50005 0.50005 0 0 0 76.445312 60.25 L 73.900391 61.332031 A 0.50099177 0.50099177 0 1 0 74.292969 62.253906 L 76.154297 61.460938 L 76.201172 64.416016 A 0.50005 0.50005 0 0 0 76.898438 64.869141 L 78.753906 64.070312 L 78.808594 67.039062 A 0.50007726 0.50007726 0 1 0 79.808594 67.021484 L 79.740234 63.308594 A 0.50005 0.50005 0 0 0 79.042969 62.859375 L 77.189453 63.654297 L 77.142578 60.701172 A 0.50005 0.50005 0 0 0 76.619141 60.210938 z M 44.947266 60.3125 A 0.50005 0.50005 0 0 0 44.779297 61.28125 L 45.777344 61.671875 A 0.50005 0.50005 0 1 0 46.140625 60.740234 L 45.142578 60.349609 A 0.50005 0.50005 0 0 0 44.947266 60.3125 z M 45.279297 64.605469 A 0.50005 0.50005 0 0 0 44.789062 65.113281 L 44.814453 72.724609 A 0.50005 0.50005 0 0 0 45.115234 73.179688 L 47.474609 74.214844 L 47.544922 77.738281 A 0.50009536 0.50009536 0 1 0 48.544922 77.71875 L 48.46875 73.875 A 0.50005 0.50005 0 0 0 48.169922 73.427734 L 45.814453 72.394531 L 45.789062 65.109375 A 0.50005 0.50005 0 0 0 45.279297 64.605469 z M 71.556641 66.070312 A 0.50005 0.50005 0 0 0 71.060547 66.572266 L 71.033203 70.052734 L 68.652344 71.066406 A 0.50005 0.50005 0 0 0 68.347656 71.521484 L 68.3125 74.871094 L 67.013672 75.363281 A 0.50005543 0.50005543 0 0 0 67.367188 76.298828 L 68.986328 75.685547 A 0.50005 0.50005 0 0 0 69.308594 75.222656 L 69.34375 71.857422 L 71.726562 70.84375 A 0.50005 0.50005 0 0 0 72.03125 70.388672 L 72.060547 66.580078 A 0.50005 0.50005 0 0 0 71.556641 66.070312 z M 33.121094 66.527344 A 0.50005 0.50005 0 0 0 32.628906 67.033203 L 32.628906 70.080078 L 28.154297 68.125 A 0.50035486 0.50035486 0 1 0 27.755859 69.042969 L 32.929688 71.300781 A 0.50005 0.50005 0 0 0 33.628906 70.84375 L 33.628906 67.033203 A 0.50005 0.50005 0 0 0 33.121094 66.527344 z M 35.761719 67.660156 A 0.50005 0.50005 0 0 0 35.560547 68.621094 L 37.871094 69.621094 L 37.871094 73.083984 A 0.50005 0.50005 0 1 0 38.871094 73.083984 L 38.871094 69.292969 A 0.50005 0.50005 0 0 0 38.568359 68.833984 L 35.957031 67.703125 A 0.50005 0.50005 0 0 0 35.761719 67.660156 z M 61.962891 70.171875 A 0.50005 0.50005 0 0 0 61.474609 70.683594 L 61.501953 74.037109 L 59.228516 74.994141 A 0.50005 0.50005 0 0 0 58.923828 75.472656 L 59.037109 78.785156 L 54.177734 80.894531 A 0.50005 0.50005 0 1 0 54.574219 81.8125 L 59.748047 79.566406 A 0.50005 0.50005 0 0 0 60.048828 79.089844 L 59.935547 75.78125 L 62.197266 74.828125 A 0.50005 0.50005 0 0 0 62.503906 74.363281 L 62.474609 70.675781 A 0.50005 0.50005 0 0 0 61.962891 70.171875 z M 26.892578 71.619141 A 0.50005 0.50005 0 0 0 26.707031 72.574219 L 27.658203 73.021484 A 0.50005 0.50005 0 1 0 28.083984 72.117188 L 27.134766 71.669922 A 0.50005 0.50005 0 0 0 26.892578 71.619141 z M 27.890625 73.775391 A 0.50005 0.50005 0 0 0 27.392578 74.277344 L 27.382812 75.228516 A 0.50005 0.50005 0 1 0 28.382812 75.238281 L 28.392578 74.287109 A 0.50005 0.50005 0 0 0 27.890625 73.775391 z"></path>
</svg>